<svg width="18" height="16" viewBox="0 0 18 16" fill="none" xmlns="http://www.w3.org/2000/svg">
<path d="M8.375 1.77751C7.06925 0.941149 5.55063 0.497712 4 0.500009C3.07749 0.499066 2.16158 0.655475 1.29167 0.962509C1.16983 1.00559 1.06433 1.08537 0.989715 1.19088C0.915096 1.2964 0.875018 1.42244 0.875 1.55168V13.4267C0.875014 13.5267 0.899014 13.6252 0.944985 13.714C0.990955 13.8027 1.05755 13.8792 1.13919 13.9369C1.22083 13.9946 1.31512 14.0319 1.41416 14.0457C1.51319 14.0594 1.61407 14.0492 1.70833 14.0158C2.44444 13.7562 3.21945 13.624 4 13.625C5.6625 13.625 7.18583 14.2142 8.375 15.1967V1.77751ZM9.625 15.1967C10.8553 14.1785 12.403 13.6225 14 13.625C14.805 13.625 15.575 13.7633 16.2917 14.0167C16.386 14.05 16.487 14.0602 16.5861 14.0465C16.6851 14.0327 16.7795 13.9953 16.8611 13.9375C16.9428 13.8797 17.0094 13.8031 17.0553 13.7142C17.1012 13.6253 17.1251 13.5267 17.125 13.4267V1.55168C17.125 1.42244 17.0849 1.2964 17.0103 1.19088C16.9357 1.08537 16.8302 1.00559 16.7083 0.962509C15.8384 0.655475 14.9225 0.499066 14 0.500009C12.4494 0.497712 10.9307 0.941149 9.625 1.77751V15.1967Z" fill="#16191E"/>
</svg>
